<svg xmlns="http://www.w3.org/2000/svg" width="256" height="256"><path fill-opacity=".016" d="M0 128.004v128.004l128.25-.254 128.25-.254.254-127.75L257.008 0H0v128.004m.485.496c0 70.4.119 99.053.265 63.672.146-35.38.146-92.98 0-128C.604 29.153.485 58.1.485 128.5" fill="#1976D2" fill-rule="evenodd"/><path fill-opacity=".087" d="M26 6.688c0 4.038 3.566 26.568 9 56.867 4.95 27.598 9 51.313 9 52.699 0 1.386-2.698 13.708-5.997 27.383-3.298 13.675-5.998 25.134-6 25.464-.001.331 14.509 13.726 32.247 29.767 17.738 16.042 35.4 32.765 39.25 37.164 3.85 4.398 10.225 10.69 14.166 13.982 11.822 9.874 13.593 9.119 36.334-15.498 5.775-6.251 23.775-23.184 40-37.628 16.225-14.445 29.773-26.664 30.108-27.154.334-.49-2.248-11.993-5.737-25.563-3.489-13.569-6.35-25.903-6.357-27.409-.008-1.506 3.811-24.878 8.486-51.938C229.646 11.888 230.896-.45 227.054.18c-1.071.176-19.521 14.495-41.001 31.82-37.815 30.501-39.353 31.617-48.475 35.187l-9.422 3.687-8.856-3.187c-8.642-3.11-9.825-3.965-49.039-35.437C47.028 13.605 29.217 0 28.039 0 26.19 0 26 .625 26 6.688m15.179 51.081c4.258 23.502 7.872 43.611 8.031 44.687.16 1.075 4.303-7.865 9.207-19.868 7.928-19.399 8.772-22.055 7.607-23.92-1.194-1.913-30.445-41.196-31.943-42.899-.353-.402 2.841 18.498 7.098 42m163.625-19.815l-16.696 22.764 8.437 20.213c4.64 11.118 8.792 20.849 9.227 21.626.463.827 3.944-16.898 8.41-42.823 4.191-24.329 7.552-44.304 7.469-44.389-.083-.086-7.664 10.088-16.847 22.609M83.987 80.935L91.929 96.5 95.48 120c1.954 12.925 3.823 24.819 4.155 26.432.488 2.37 2.975-3.831 12.984-32.371C119.429 94.644 125 78.399 125 77.961c0-1.555-18.727-6.976-33.728-9.762l-15.228-2.828 7.943 15.564M162 68.577c-15.15 2.444-31.346 7.673-30.793 9.942 1.37 5.614 24.434 69.22 24.906 68.682.337-.386 2.299-12.176 4.359-26.201l3.746-25.5 7.391-14.245c4.065-7.834 7.391-14.472 7.391-14.75 0-.664-.147-.646-17 2.072M62.209 91.821c-5.11 12.528-9.482 23.656-9.714 24.729-.324 1.493 2.905 4.822 13.791 14.218C83.57 145.687 95 153.914 95 151.438c0-.935-1.83-13.453-4.067-27.819L86.866 97.5l-7.183-14.244C75.732 75.423 72.275 69.02 72 69.028c-.275.008-4.681 10.265-9.791 22.793m114.488-10.029c-3.735 6.99-7.199 14.733-7.698 17.208-1.664 8.267-8.097 52.206-7.782 53.152.172.514 4.109-1.848 8.75-5.247C180.018 139.542 204 119.199 204 118.036c0-.912-17.539-43.264-19.358-46.744-1.06-2.028-1.706-1.174-7.945 10.5m-49.209 1.513c-.409.992-6.468 18.082-13.464 37.976l-12.72 36.172 2.598 10.024L106.5 177.5l10.768 1.914c10.493 1.865 11.021 1.868 20.696.093 5.46-1.002 10.358-2.089 10.883-2.414.526-.326 2.123-4.879 3.55-10.117l2.593-9.523-12.845-36.477A93865.051 93865.051 0 00128.766 83c-.44-1.239-.663-1.186-1.278.305m-81.883 59.446c-2.692 11.412-4.942 21.163-5 21.669-.058.506 7.696 1.94 17.231 3.185 9.534 1.246 19.32 2.942 21.746 3.768 4.858 1.656 4.85 1.663 5.638-5.373.206-1.837 1.539-3.163 5.027-5 2.611-1.375 4.741-2.725 4.733-3-.007-.275-4.168-3.422-9.247-6.994-5.078-3.571-14.956-11.558-21.952-17.75-6.995-6.191-12.845-11.256-13-11.255-.154 0-2.484 9.337-5.176 20.75m145.999-8.669c-7.093 6.057-16.656 13.744-21.25 17.082-4.595 3.338-8.354 6.364-8.354 6.723 0 .36 2.025 1.761 4.5 3.113 3.022 1.651 4.504 3.122 4.514 4.479.007 1.112.295 3.072.639 4.356.558 2.085 1.012 2.26 4.236 1.628 1.986-.389 11.584-1.913 21.328-3.386 9.745-1.473 17.974-2.935 18.287-3.248.704-.704-9.511-41.843-10.378-41.794-.344.02-6.429 4.991-13.522 11.047M47 173.542c0 .567 49.177 44.613 49.471 44.311.189-.194 2.451-3.921 5.026-8.283l4.681-7.929-1.715-8.833c-1.454-7.483-2.041-8.902-3.84-9.281-1.167-.247-4.823-.955-8.123-1.573-3.3-.619-9.031-2.029-12.735-3.133-5.471-1.63-32.765-6.027-32.765-5.279m147.5 2.054c-8.25 1.316-20.85 3.634-28 5.149l-13 2.755-1.792 9.225-1.791 9.224 4.629 8.026c2.546 4.414 4.831 8.025 5.079 8.025.247 0 11.345-9.747 24.662-21.659a43125.871 43125.871 0 0125.163-22.5c.522-.463.747-.796.5-.74-.247.055-7.2 1.178-15.45 2.495m-86.187 10.776c.289.755.838 3.455 1.22 6s.909 4.628 1.171 4.628 2.965-2.125 6.005-4.723l5.528-4.723-6.368-1.215c-8.243-1.573-8.173-1.574-7.556.033m30.789-.008l-5.398 1.14 5.558 4.748c3.056 2.611 5.773 4.748 6.036 4.748.264 0 .785-1.687 1.159-3.75.374-2.062.923-4.762 1.22-6 .623-2.595-.119-2.671-8.575-.886m-18.287 8.752c-4.023 3.341-7.727 6.466-8.231 6.945-1.109 1.054 2.44 33.939 3.662 33.939.458 0 3.172-1.575 6.03-3.5 2.859-1.925 5.6-3.5 6.091-3.5.492 0 3.129 1.606 5.862 3.569 2.732 1.963 5.196 3.339 5.477 3.059.28-.281 1.5-7.69 2.712-16.465l2.202-15.955-8.245-7.083-8.244-7.083-7.316 6.074m-16.438 19.134c-.92 1.787-2.279 4.18-3.02 5.316-1.228 1.885-.903 2.541 3.713 7.5 4.945 5.312 5.047 5.364 4.55 2.337-.28-1.704-.821-6.541-1.202-10.75-.382-4.209-1.07-7.653-1.53-7.653-.46 0-1.59 1.463-2.511 3.25m42.757 6.853c-.694 5.557-1.076 10.289-.849 10.516.227.226 2.498-1.818 5.047-4.543l4.634-4.954-3.193-5.561c-1.757-3.059-3.461-5.561-3.786-5.561-.326 0-1.16 4.546-1.853 10.103" fill="#1976D2" fill-rule="evenodd"/><path fill-opacity=".358" d="M26 5.996c0 3.298 4.258 29.449 9.463 58.114l9.463 52.118-6.006 25.136c-3.304 13.825-6.099 25.845-6.213 26.712-.124.94 12.499 13.076 31.293 30.085 17.325 15.679 35.093 32.478 39.486 37.329 4.392 4.852 11.041 11.452 14.775 14.666 5.63 4.846 7.421 5.844 10.485 5.844 3.476 0 4.823-1.146 22.725-19.324 10.466-10.628 31.066-30.039 45.779-43.135 14.712-13.097 26.738-24.314 26.723-24.927-.014-.613-2.898-12.525-6.409-26.472l-6.383-25.358 8.909-51.641C228.97 13.674 230.549 0 227.612 0c-.763 0-19.412 14.512-41.44 32.25-38.908 31.328-40.309 32.345-49.028 35.586l-8.975 3.335-7.825-2.628c-4.304-1.445-8.729-3.224-9.834-3.952-1.106-.729-19.779-15.56-41.497-32.958C47.295 14.235 28.732 0 27.763 0 26.275 0 26 .936 26 5.996M33.38 16.5c.327 1.65 3.991 21.877 8.141 44.95 4.15 23.072 7.743 42.147 7.984 42.389.242.241.86-.637 1.374-1.95.514-1.314 4.549-11.138 8.967-21.83l8.033-19.442-6.63-9.058C41.088 24.014 32.801 13.589 33.38 16.5m172.016 20.133c-8.743 11.921-16.265 22.298-16.717 23.058-.528.891 2.104 8.409 7.384 21.096 8.569 20.591 10.83 25.48 10.897 23.57.022-.629 3.443-20.813 7.602-44.854 4.159-24.042 7.375-43.899 7.146-44.128-.229-.229-7.57 9.337-16.312 21.258M76 65.532c0 .411 3.403 7.215 7.562 15.118l7.562 14.371 4.012 26.239c2.206 14.432 4.24 26.915 4.52 27.74.346 1.017 25.38-67.178 26.309-71.667.181-.875-24.105-7.646-33.465-9.331-6.6-1.188-13.013-2.398-14.25-2.689-1.237-.292-2.25-.193-2.25.219m84.5 2.989c-13.734 2.278-28.5 6.979-29.281 9.322-.281.843 20.448 61.212 24.433 71.157.331.825 2.572-11.261 4.98-26.857l4.38-28.357 4.638-8.643c2.551-4.754 5.957-11.005 7.568-13.893l2.929-5.25-2.824.1c-1.552.054-9.123 1.144-16.823 2.421M67.737 77.75c-1.983 4.813-6.524 15.802-10.089 24.421l-6.484 15.671 13.219 11.574c11.915 10.432 30.6 24.935 31.267 24.268.144-.145-1.712-12.925-4.124-28.402l-4.385-28.14-7.14-14.071C76.074 75.332 72.52 69 72.102 69c-.417 0-2.381 3.938-4.365 8.75m108.396 4.5l-7 13.25-4.501 28.982c-2.476 15.94-4.349 29.134-4.163 29.32.999.999 44.031-33.783 44.031-35.59 0-1.516-20.038-49.173-20.684-49.192-.376-.011-3.833 5.943-7.683 13.23m-49.097 1.25c-.661 1.65-6.808 18.975-13.66 38.5l-12.457 35.5 2.661 10.125 2.66 10.125 11.04 2.083 11.04 2.083 10.09-2.108c5.55-1.16 10.568-2.476 11.152-2.924.584-.449 2.078-5.219 3.32-10.6l2.258-9.784-12.92-36.5-13.451-38c-.371-1.048-.893-.596-1.733 1.5m-82.051 60.062c-2.856 11.86-5.034 21.7-4.839 21.868.195.169 7.857 1.277 17.027 2.463 9.17 1.186 18.845 2.815 21.5 3.621 6.339 1.923 6.325 1.926 6.341-1.264.025-5.061 1.077-6.802 5.546-9.173 2.442-1.295 4.44-2.696 4.44-3.112 0-.416-4.162-3.711-9.25-7.321S70.875 139.12 64 133.057c-6.875-6.062-12.797-11.03-13.161-11.039-.363-.01-2.998 9.685-5.854 21.544m148.482-11.343c-6.582 5.566-16.467 13.47-21.967 17.565-5.5 4.095-10.111 7.732-10.247 8.081-.136.349 1.889 1.76 4.5 3.135 3.488 1.837 4.821 3.163 5.027 5 .745 6.658.914 6.859 4.963 5.932 2.066-.474 11.632-2.026 21.257-3.45 9.625-1.424 18.034-2.766 18.687-2.98.833-.274-.46-6.754-4.33-21.693-3.035-11.717-5.609-21.394-5.72-21.505-.112-.112-5.588 4.35-12.17 9.915M48.14 175.207c1.451 1.261 12.595 11.293 24.764 22.293 12.169 11 22.62 20 23.224 20 .604 0 3.149-3.551 5.656-7.891l4.559-7.891-1.275-7.609c-.701-4.185-1.653-8.32-2.116-9.189-.529-.994-3.548-2.063-8.146-2.884-4.018-.717-10.906-2.329-15.306-3.581-4.4-1.252-12.05-2.773-17-3.379-4.95-.606-10.8-1.34-13-1.632l-4-.531 2.64 2.294m144.36.312c-7.7 1.253-19.4 3.447-26 4.875-6.6 1.427-12.29 2.598-12.644 2.601-.354.003-1.449 4.28-2.434 9.506l-1.789 9.501 2.363 4.249c1.3 2.337 3.52 6.122 4.934 8.412l2.57 4.163 24-21.453c29.307-26.197 27.463-24.406 24.964-24.253-1.08.066-8.264 1.146-15.964 2.399M141 185.778c-3.575.794-6.66 1.59-6.855 1.771-.349.322 4.591 4.882 9.308 8.593l2.399 1.887 1.146-5.521c1.726-8.311 1.627-8.422-5.998-6.73m-33 .055c0 .458.509 3.37 1.132 6.47l1.132 5.637 5.811-4.72c3.196-2.596 5.837-4.995 5.868-5.332.056-.596-9.951-2.888-12.61-2.888-.733 0-1.333.375-1.333.833m11.194 10.305c-7.301 6.216-8.243 7.392-7.783 9.717.288 1.455 1.258 8.945 2.155 16.645.897 7.7 1.777 14.153 1.955 14.34.179.186 3.095-1.542 6.48-3.841l6.155-4.179 5.927 4.157c4.111 2.884 6.058 3.754 6.353 2.841.233-.725 1.145-6.943 2.025-13.818.881-6.875 1.852-13.907 2.158-15.626.521-2.924.01-3.586-7.903-10.25-4.653-3.918-8.63-7.109-8.838-7.091-.208.018-4.116 3.215-8.684 7.105m27.589 25.112c-.873 6.738-1.495 12.349-1.382 12.47.114.122 2.568-2.463 5.455-5.743l5.25-5.963-3.639-6.507c-2.002-3.579-3.742-6.507-3.868-6.507-.126 0-.943 5.512-1.816 12.25m-43.606-5.601c-1.784 3.107-3.117 5.967-2.961 6.357.156.389 2.422 3.071 5.034 5.959 3.923 4.337 4.75 4.874 4.75 3.085 0-4.358-2.339-21.05-2.95-21.05-.346 0-2.089 2.542-3.873 5.649" fill="#1976D2" fill-rule="evenodd"/><path fill-opacity=".177" d="M26.331 7.384c.343 4.061 4.745 30.272 9.781 58.246l9.157 50.863-6.134 25.582C35.761 156.146 33 168.131 33 168.71c0 .579 13.612 13.297 30.25 28.262 16.638 14.966 34.3 31.686 39.25 37.156 11.991 13.251 22.14 21.842 25.823 21.859 3.525.016 12.232-7.488 24.705-21.291 4.873-5.392 22.497-21.984 39.166-36.871a45971.178 45971.178 0 0031.107-27.797c.441-.402-2.21-12.454-5.89-26.783l-6.692-26.053 9.141-52.922c8.953-51.84 10.484-64.302 7.89-64.24C227.063.046 208.725 14.433 187 32c-36.946 29.874-40.066 32.168-48.257 35.47-4.816 1.941-9.621 3.53-10.677 3.53-1.057 0-5.441-1.261-9.744-2.802-7.337-2.628-10.349-4.831-48.537-35.5C47.391 14.714 28.313 0 27.388 0c-1.48 0-1.607.886-1.057 7.384M33 15.128c0 1.469 12.882 73.737 15.104 84.729.595 2.946 1.422 4.971 1.838 4.5C50.746 103.446 68 61.603 68 60.566c0-.541-31.949-43.607-34.137-46.016-.522-.575-.863-.346-.863.578m171.75 21.808C195.537 49.522 188 60.346 188 60.992c0 1.536 16.906 42.238 18.028 43.403 1.052 1.092 1.045 1.121 5.409-24.395 7.406-43.307 10.583-61.581 11.082-63.75.286-1.238.173-2.238-.25-2.223-.423.015-8.306 10.324-17.519 22.909M82.944 80.25l7.927 15.25 4.288 27.75c2.358 15.262 4.525 27.748 4.814 27.746.668-.006 25.527-71.004 25.527-72.905 0-2.102-14.693-6.762-32-10.148-8.25-1.615-15.784-2.937-16.742-2.939-1.384-.003-.115 3.124 6.186 15.246M163.5 67.604c-13.123 2.069-30.034 6.882-32.749 9.321-.594.534 23.589 71.422 24.901 72.992.855 1.023 1.44-2.011 5.376-27.927l4.175-27.49 7.399-13.95c7.305-13.775 8.119-15.665 6.648-15.431l-15.75 2.485M61.571 91.75c-5.399 13.063-10.014 24.26-10.256 24.883-.933 2.408 42.625 38.761 44.361 37.024.317-.317-1.34-13.082-3.682-28.367L87.736 97.5l-7.61-14.75C75.941 74.638 72.263 68 71.953 68c-.311 0-4.982 10.688-10.382 23.75m114.413-10.014l-7.323 13.736-4.318 28.014c-2.375 15.408-4.324 28.797-4.331 29.754-.016 2.261 11.345-5.994 30.806-22.384 10.59-8.919 14.163-12.488 13.722-13.707-2.819-7.791-20.174-49.099-20.637-49.121-.328-.015-3.892 6.153-7.919 13.708m-48.195-1.187c-.317.523-6.547 17.974-13.844 38.781l-13.268 37.83 2.358 9.99c1.462 6.192 2.949 10.282 3.912 10.758.854.422 6.098 1.579 11.654 2.57l10.101 1.802 10.853-2.39 10.853-2.39 2.665-10.048 2.666-10.049-12.713-35.98c-6.991-19.789-13.15-37.295-13.686-38.902-.536-1.608-1.233-2.495-1.551-1.972m-78.652 44.127c-3.975 15.521-9.433 40.361-8.97 40.825.311.31 7.488 1.455 15.949 2.543 8.461 1.088 17.889 2.648 20.95 3.467S83.113 173 83.702 173c.589 0 1.373-2.014 1.742-4.475.61-4.071 1.116-4.724 5.612-7.25 2.718-1.526 4.935-3 4.926-3.275-.008-.275-4.17-3.418-9.249-6.983-5.078-3.566-14.633-11.216-21.233-17-16.886-14.799-15.21-13.842-16.363-9.341m144.363 7.027c-6.05 5.257-16.152 13.397-22.448 18.089l-11.448 8.531 5.165 2.53c4.779 2.339 5.214 2.852 5.814 6.85.356 2.377 1.017 4.55 1.467 4.828.451.279 2.927.034 5.503-.543 2.575-.577 12.36-2.166 21.744-3.531 9.384-1.365 17.222-2.643 17.419-2.84.696-.696-10.321-42.984-11.261-43.226-.525-.135-5.905 4.055-11.955 9.312M49.017 176.342c4.354 4.178 43.902 39.714 46.101 41.425 1.414 1.1 2.267.136 6.742-7.618l5.123-8.877-1.784-8.886-1.784-8.886-9.957-2.111c-5.477-1.161-12.433-2.84-15.458-3.732C72.529 176.045 52.976 173 48.093 173h-2.56l3.484 3.342M193 175.038c-13.61 2.174-38.807 7.436-39.652 8.281-.326.326-1.404 4.55-2.396 9.387l-1.802 8.794 3.868 7c2.128 3.85 4.475 7.82 5.215 8.822 1.239 1.678 3.377.011 26.807-20.887a42832.116 42832.116 0 0125.877-23.073c.926-.805-7.061-.058-17.917 1.676m-85.191 9.486c-.572.573 1.612 12.23 2.448 13.066.44.441 12.743-9.316 12.743-10.106 0-.188-2.588-.855-5.75-1.482s-6.458-1.339-7.322-1.582c-.865-.243-1.819-.196-2.119.104m31.242 1.177l-6.448 1.525 5.948 5.346c3.272 2.939 6.387 5.217 6.923 5.062.775-.226 3.286-9.517 3.482-12.884.062-1.052-2.452-.811-9.905.951m-19.809 9.965c-4.533 3.667-8.236 7.379-8.23 8.25.028 3.541 3.874 32.303 4.388 32.818.305.305 3.344-1.279 6.753-3.519l6.199-4.073 5.487 3.929c3.017 2.161 5.802 3.929 6.188 3.929.771 0 5.385-32.349 4.823-33.81-.44-1.14-15.798-14.19-16.701-14.19-.366 0-4.374 3-8.907 6.666m-16.183 19.719l-3.441 6.381 4.16 4.969c3.932 4.696 7.232 7.961 7.214 7.137-.004-.204-.679-5.755-1.5-12.334S108 209.446 108 209.288c0-.158-.338-.287-.75-.287-.412.001-2.298 2.874-4.191 6.384m44.922-5.694c-.011.445-.672 5.309-1.469 10.809-2.151 14.848-2.221 14.613 2.867 9.619 7.101-6.97 7.332-7.89 3.616-14.473-3.049-5.403-4.973-7.688-5.014-5.955" fill="#1976D2" fill-rule="evenodd"/></svg>